{"title":"Immortals 2011 CAM XViD - U.S.M","uid":6818058,"size":832464559,"categoryP":"video","categoryS":"movies","magnet":"?xt=urn:btih:76340c63813b1c7e61784ea25f50213a0620cc08&amp;dn=Immortals+2011+CAM+XViD+-+U.S.M&amp;tr=udp%3A%2F%2Ftracker.openbittorrent.com%3A80&amp;tr=udp%3A%2F%2Fopen.demonii.com%3A1337&amp;tr=udp%3A%2F%2Ftracker.coppersurfer.tk%3A6969&amp;tr=udp%3A%2F%2Fexodus.desync.com%3A6969","seeders":0,"leechers":0,"uploader":"Emo_Boy23","files":3,"time":1321296223,"description":"Immortals 2011 CAM XViD - U.S.M\n\n\nSOURCES:-\n\nImmortals.2011.3D.SORS.RELIZLAB\nTHS\n\nIMDB:-\n &lt;a href=&quot;\nhttp://www.imdb.com/title/tt1253864/&quot; rel=&quot;nofollow&quot; target=&quot;_NEW&quot;&gt;\nhttp://www.imdb.com/title/tt1253864/&lt;/a&gt;\n\nVideo:-\n\nID                               : 0\nFormat                           : MPEG-4 Visual\nFormat profile                   : Advanced Simple@L5\nFormat settings, BVOP            : 2\nFormat settings, QPel            : No\nFormat settings, GMC             : No warppoints\nFormat settings, Matrix          : Default (MPEG)\nMuxing mode                      : Packed bitstream\nCodec ID                         : XVID\nCodec ID/Hint                    : XviD\nDuration                         : 1h 41mn\nBit rate                         : 936 Kbps\nWidth                            : 608 pixels\nHeight                           : 320 pixels\nDisplay aspect ratio             : 1.900\nFrame rate                       : 25.000 fps\nColor space                      : YUV\nChroma subsampling               : 4:2:0\nBit depth                        : 8 bits\nScan type                        : Progressive\nCompression mode                 : Lossy\nBits/(Pixel*Frame)               : 0.192\nStream size                      : 682 MiB (87%)\nWriting library                  : XviD 64\n\nAudio:-\n\nID                               : 1\nFormat                           : MPEG Audio\nFormat version                   : Version 1\nFormat profile                   : Layer 3\nCodec ID                         : 55\nCodec ID/Hint                    : MP3\nDuration                         : 1h 41mn\nBit rate mode                    : Constant\nBit rate                         : 128 Kbps\nChannel(s)                       : 2 channels\nSampling rate                    : 44.1 KHz\nCompression mode                 : Lossy\nDelay relative to video          : 11ms\nStream size                      : 93.3 MiB (12%)\nAlignment                        : Split accross interleaves\nInterleave, duration             : 40 ms (1.00 video frame)\nInterleave, preload duration     : 500 ms\n\n[[Check The Sample For Quality]]","torrent":{"xt":"urn:btih:76340c63813b1c7e61784ea25f50213a0620cc08","amp;dn":"Immortals+2011+CAM+XViD+-+U.S.M","amp;tr":["udp%3A%2F%2Ftracker.openbittorrent.com%3A80","udp%3A%2F%2Fopen.demonii.com%3A1337","udp%3A%2F%2Ftracker.coppersurfer.tk%3A6969","udp%3A%2F%2Fexodus.desync.com%3A6969"],"infoHash":"76340c63813b1c7e61784ea25f50213a0620cc08","infoHashBuffer":{"type":"Buffer","data":[118,52,12,99,129,59,28,126,97,120,78,162,95,80,33,58,6,32,204,8]},"announce":[],"urlList":[]}}